<?xml version="1.0" encoding="UTF-8" standalone="no"?>
<!-- Created with Inkscape (http://www.inkscape.org/) -->
<svg xmlns:svg="http://www.w3.org/2000/svg" xmlns="http://www.w3.org/2000/svg" xmlns:xlink="http://www.w3.org/1999/xlink" version="1.0" width="664.80865" height="506.12189" id="svg2">
  <defs id="defs4">
    <marker refX="0" refY="0" orient="auto" style="overflow:visible" id="Arrow2Mend">
      <path d="M 8.7185878,4.0337352 L -2.2072895,0.016013256 L 8.7185884,-4.0017078 C 6.97309,-1.6296469 6.9831476,1.6157441 8.7185878,4.0337352 z " transform="scale(-0.6,-0.6)" style="font-size:12px;fill-rule:evenodd;stroke-width:0.625;stroke-linejoin:round" id="path6110"/>
    </marker>
    <marker refX="0" refY="0" orient="auto" style="overflow:visible" id="Arrow2Lend">
      <path d="M 8.7185878,4.0337352 L -2.2072895,0.016013256 L 8.7185884,-4.0017078 C 6.97309,-1.6296469 6.9831476,1.6157441 8.7185878,4.0337352 z " transform="matrix(-1.1,0,0,-1.1,-1.1,0)" style="font-size:12px;fill-rule:evenodd;stroke-width:0.625;stroke-linejoin:round" id="path6104"/>
    </marker>
  </defs>
  <path d="M 222.91949,53.461372 C 222.91949,55.608873 221.1786,57.349767 219.0311,57.349767 C 216.88359,57.349767 215.1427,55.608873 215.1427,53.461372 C 215.1427,51.313871 216.88359,49.572977 219.0311,49.572977 C 221.1786,49.572977 222.91949,51.313871 222.91949,53.461372 z " style="fill:black;fill-opacity:1;fill-rule:nonzero;stroke:none;stroke-width:2;stroke-linecap:round;stroke-linejoin:round;stroke-miterlimit:4;stroke-dasharray:none;stroke-dashoffset:0;stroke-opacity:1" id="path4136"/>
  <g transform="translate(-50.16533,-38.4678)" id="g4378">
    <path d="M 222.83481,137.09435 L 264.41071,95.518461" style="fill:none;fill-rule:evenodd;stroke:black;stroke-width:2;stroke-linecap:butt;stroke-linejoin:miter;marker-end:none;stroke-miterlimit:4;stroke-dasharray:none;stroke-opacity:1" id="path5109"/>
    <path d="M 254.42576,98.574351 L 267.10583,92.712588 L 261.24406,105.39265 C 260.71241,101.89878 257.95007,99.153512 254.42576,98.574351 z " style="font-size:12px;fill:black;fill-opacity:1;fill-rule:evenodd;stroke:none;stroke-width:0.625;stroke-linejoin:round" id="path7259"/>
  </g>
  <path d="M 443.20278,261.67239 L 438.38152,274.78345 L 433.56025,261.67239 C 436.40672,263.76699 440.30119,263.75492 443.20278,261.67239 z " style="font-size:12px;fill:black;fill-opacity:1;fill-rule:evenodd;stroke:none;stroke-width:0.625;stroke-linejoin:round" id="path4370"/>
  <path d="M 113.44627,32.224765 L 169.0802,100.4212 L 179.24984,207.20244" style="fill:none;fill-rule:evenodd;stroke:red;stroke-width:2;stroke-linecap:butt;stroke-linejoin:round;stroke-miterlimit:4;stroke-dasharray:none;stroke-opacity:1" id="path8230"/>
  <path d="M 183.42371,198.9862 L 180.15507,212.56783 L 173.84621,200.10417 C 176.91633,201.85463 180.78313,201.39111 183.42371,198.9862 z " style="font-size:12px;fill:red;fill-opacity:1;fill-rule:evenodd;stroke:none;stroke-width:0.625;stroke-linejoin:round" id="path9201"/>
  <g transform="translate(-50.16533,-38.4678)" id="g2422">
    <path d="M 266.42857,162.36218 C 266.42857,200.62762 235.4083,231.64789 197.14285,231.64789 C 158.87741,231.64789 127.85714,200.62762 127.85714,162.36218 C 127.85714,124.09674 158.87741,93.076465 197.14285,93.076465 C 235.4083,93.076465 266.42857,124.09674 266.42857,162.36218 L 266.42857,162.36218 z " style="fill:none;fill-opacity:1;fill-rule:nonzero;stroke:black;stroke-width:2;stroke-linecap:round;stroke-linejoin:round;stroke-miterlimit:4;stroke-dasharray:none;stroke-dashoffset:0;stroke-opacity:1" id="path2170"/>
    <path d="M 245,162.36218 C 245,188.79295 223.57363,210.21933 197.14286,210.21933 C 170.71208,210.21933 149.28571,188.79295 149.28571,162.36218 C 149.28571,135.93141 170.71208,114.50503 197.14286,114.50503 C 223.57363,114.50503 245,135.93141 245,162.36218 L 245,162.36218 z " style="fill:none;fill-opacity:1;fill-rule:nonzero;stroke:black;stroke-width:2;stroke-linecap:round;stroke-linejoin:round;stroke-miterlimit:4;stroke-dasharray:none;stroke-dashoffset:0;stroke-opacity:1" id="use3143"/>
    <path d="M 229.28571,162.36218 C 229.29197,180.11862 214.89929,194.51638 197.14285,194.51638 C 179.38642,194.51638 164.99374,180.11862 165,162.36218 C 164.99374,144.60574 179.38642,130.20798 197.14285,130.20798 C 214.89929,130.20798 229.29197,144.60574 229.28571,162.36218 z " style="fill:none;fill-opacity:1;fill-rule:nonzero;stroke:black;stroke-width:2;stroke-linecap:round;stroke-linejoin:round;stroke-miterlimit:4;stroke-dasharray:none;stroke-dashoffset:0;stroke-opacity:1" id="use3147"/>
    <path d="M 206.61316,162.36218 C 206.61601,167.5945 202.37517,171.83764 197.14285,171.83764 C 191.91054,171.83764 187.6697,167.5945 187.67255,162.36218 C 187.6697,157.12986 191.91054,152.88672 197.14285,152.88672 C 202.37517,152.88672 206.61601,157.12986 206.61316,162.36218 z " style="fill:black;fill-opacity:1;fill-rule:nonzero;stroke:none;stroke-width:2;stroke-linecap:round;stroke-linejoin:round;stroke-miterlimit:4;stroke-dasharray:none;stroke-dashoffset:0;stroke-opacity:1" id="use3151"/>
    <path d="M 202.64508,93.125603 C 202.64508,95.273104 200.90419,97.013998 198.75669,97.013998 C 196.60918,97.013998 194.86829,95.273104 194.86829,93.125603 C 194.86829,90.978102 196.60918,89.237208 198.75669,89.237208 C 200.90419,89.237208 202.64508,90.978102 202.64508,93.125603 z " style="fill:black;fill-opacity:1;fill-rule:nonzero;stroke:none;stroke-width:2;stroke-linecap:round;stroke-linejoin:round;stroke-miterlimit:4;stroke-dasharray:none;stroke-dashoffset:0;stroke-opacity:1" id="path4124"/>
    <path d="M 173.78125,122.88676 C 173.78125,125.03426 172.04036,126.77516 169.89286,126.77516 C 167.74535,126.77516 166.00446,125.03426 166.00446,122.88676 C 166.00446,120.73926 167.74535,118.99837 169.89286,118.99837 C 172.04036,118.99837 173.78125,120.73926 173.78125,122.88676 z " style="fill:black;fill-opacity:1;fill-rule:nonzero;stroke:none;stroke-width:2;stroke-linecap:round;stroke-linejoin:round;stroke-miterlimit:4;stroke-dasharray:none;stroke-dashoffset:0;stroke-opacity:1" id="path4126"/>
    <path d="M 131.90625,160.27515 C 131.90625,162.42265 130.16536,164.16355 128.01786,164.16355 C 125.87035,164.16355 124.12946,162.42265 124.12946,160.27515 C 124.12946,158.12765 125.87035,156.38676 128.01786,156.38676 C 130.16536,156.38676 131.90625,158.12765 131.90625,160.27515 z " style="fill:black;fill-opacity:1;fill-rule:nonzero;stroke:none;stroke-width:2;stroke-linecap:round;stroke-linejoin:round;stroke-miterlimit:4;stroke-dasharray:none;stroke-dashoffset:0;stroke-opacity:1" id="path4128"/>
    <path d="M 178.1183,184.35328 C 178.1183,186.50078 176.37741,188.24168 174.22991,188.24168 C 172.0824,188.24168 170.34151,186.50078 170.34151,184.35328 C 170.34151,182.20578 172.0824,180.46489 174.22991,180.46489 C 176.37741,180.46489 178.1183,182.20578 178.1183,184.35328 z " style="fill:black;fill-opacity:1;fill-rule:nonzero;stroke:none;stroke-width:2;stroke-linecap:round;stroke-linejoin:round;stroke-miterlimit:4;stroke-dasharray:none;stroke-dashoffset:0;stroke-opacity:1" id="path4130"/>
    <path d="M 236.59375,194.3734 C 236.59375,196.5209 234.85286,198.2618 232.70536,198.2618 C 230.55785,198.2618 228.81696,196.5209 228.81696,194.3734 C 228.81696,192.2259 230.55785,190.48501 232.70536,190.48501 C 234.85286,190.48501 236.59375,192.2259 236.59375,194.3734 z " style="fill:black;fill-opacity:1;fill-rule:nonzero;stroke:none;stroke-width:2;stroke-linecap:round;stroke-linejoin:round;stroke-miterlimit:4;stroke-dasharray:none;stroke-dashoffset:0;stroke-opacity:1" id="path4132"/>
    <path d="M 270.39285,159.97605 C 270.39285,162.12355 268.65196,163.86445 266.50446,163.86445 C 264.35695,163.86445 262.61606,162.12355 262.61606,159.97605 C 262.61606,157.82855 264.35695,156.08766 266.50446,156.08766 C 268.65196,156.08766 270.39285,157.82855 270.39285,159.97605 z " style="fill:black;fill-opacity:1;fill-rule:nonzero;stroke:none;stroke-width:2;stroke-linecap:round;stroke-linejoin:round;stroke-miterlimit:4;stroke-dasharray:none;stroke-dashoffset:0;stroke-opacity:1" id="path4134"/>
    <path d="M 223.73214,139.78631 C 223.73214,141.93381 221.99125,143.67471 219.84375,143.67471 C 217.69624,143.67471 215.95535,141.93381 215.95535,139.78631 C 215.95535,137.63881 217.69624,135.89792 219.84375,135.89792 C 221.99125,135.89792 223.73214,137.63881 223.73214,139.78631 z " style="fill:white;fill-opacity:1;fill-rule:nonzero;stroke:black;stroke-width:2;stroke-linecap:round;stroke-linejoin:round;stroke-miterlimit:4;stroke-dasharray:none;stroke-dashoffset:0;stroke-opacity:1" id="path4138"/>
    <path d="M 201.758,231.41383 C 201.758,233.56133 200.01711,235.30222 197.8696,235.30222 C 195.7221,235.30222 193.98121,233.56133 193.98121,231.41383 C 193.98121,229.26633 195.7221,227.52543 197.8696,227.52543 C 200.01711,227.52543 201.758,229.26633 201.758,231.41383 z " style="fill:black;fill-opacity:1;fill-rule:nonzero;stroke:none;stroke-width:2;stroke-linecap:round;stroke-linejoin:round;stroke-miterlimit:4;stroke-dasharray:none;stroke-dashoffset:0;stroke-opacity:1" id="path2251"/>
    <switch style="font-size:12px;font-style:normal;font-weight:normal;text-align:center;text-anchor:middle;fill:black;fill-opacity:1;stroke:none;stroke-width:1px;stroke-linecap:butt;stroke-linejoin:miter;stroke-opacity:1;font-family:Sans"><text x="164.97711" y="168.23994" style="font-size:12px;font-style:normal;font-weight:normal;text-align:center;text-anchor:middle;fill:black;fill-opacity:1;stroke:none;stroke-width:1px;stroke-linecap:butt;stroke-linejoin:miter;stroke-opacity:1;font-family:Sans" id="text2253-nl" xml:space="preserve" systemLanguage="nl"><tspan x="164.97711" y="168.23994" id="tspan2255-nl">1s</tspan></text><text x="164.97711" y="168.23994" style="font-size:12px;font-style:normal;font-weight:normal;text-align:center;text-anchor:middle;fill:black;fill-opacity:1;stroke:none;stroke-width:1px;stroke-linecap:butt;stroke-linejoin:miter;stroke-opacity:1;font-family:Sans" id="text2253" xml:space="preserve"><tspan x="164.97711" y="168.23994" id="tspan2255">1 s</tspan></text></switch>
    <switch style="font-size:11px;font-style:normal;font-weight:normal;text-align:center;text-anchor:middle;fill:black;fill-opacity:1;stroke:none;stroke-width:1px;stroke-linecap:butt;stroke-linejoin:miter;stroke-opacity:1;font-family:Sans"><text x="149.7527" y="153.29234" style="font-size:11px;font-style:normal;font-weight:normal;text-align:center;text-anchor:middle;fill:black;fill-opacity:1;stroke:none;stroke-width:1px;stroke-linecap:butt;stroke-linejoin:miter;stroke-opacity:1;font-family:Sans" id="text2257-nl" xml:space="preserve" systemLanguage="nl"><tspan x="149.7527" y="153.29234" id="tspan2259-nl">2s</tspan></text><text x="149.7527" y="153.29234" style="font-size:11px;font-style:normal;font-weight:normal;text-align:center;text-anchor:middle;fill:black;fill-opacity:1;stroke:none;stroke-width:1px;stroke-linecap:butt;stroke-linejoin:miter;stroke-opacity:1;font-family:Sans" id="text2257" xml:space="preserve"><tspan x="149.7527" y="153.29234" id="tspan2259">2 s</tspan></text></switch>
    <switch style="font-size:11px;font-style:normal;font-weight:normal;text-align:end;text-anchor:end;fill:black;fill-opacity:1;stroke:none;stroke-width:1px;stroke-linecap:butt;stroke-linejoin:miter;stroke-opacity:1;font-family:Sans"><text x="131.69789" y="134.74626" style="font-size:11px;font-style:normal;font-weight:normal;text-align:end;text-anchor:end;fill:black;fill-opacity:1;stroke:none;stroke-width:1px;stroke-linecap:butt;stroke-linejoin:miter;stroke-opacity:1;font-family:Sans" id="text2261-nl" xml:space="preserve" systemLanguage="nl"><tspan x="131.69789" y="134.74626" id="tspan2263-nl">2p</tspan></text><text x="131.69789" y="134.74626" style="font-size:11px;font-style:normal;font-weight:normal;text-align:end;text-anchor:end;fill:black;fill-opacity:1;stroke:none;stroke-width:1px;stroke-linecap:butt;stroke-linejoin:miter;stroke-opacity:1;font-family:Sans" id="text2261" xml:space="preserve"><tspan x="131.69789" y="134.74626" id="tspan2263">2p</tspan></text></switch>
  </g>
  <use transform="translate(4.835205e-6,247.4056)" id="use2442" x="0" y="0" width="744.09448" height="1052.3622" xlink:href="#g2422"/>
  <g transform="matrix(0.343379,-0.939197,0.939197,0.343379,-301.8488,280.3337)" id="g2448">
    <path d="M 96.972406,416.62602 L 100.99553,458.86885" style="fill:none;fill-rule:evenodd;stroke:red;stroke-width:2;stroke-linecap:butt;stroke-linejoin:round;stroke-miterlimit:4;stroke-dasharray:none;stroke-opacity:1" id="path2444"/>
    <path d="M 105.1694,450.65261 L 101.90076,464.23424 L 95.591904,451.77058 C 98.662024,453.52104 102.52882,453.05752 105.1694,450.65261 z " style="font-size:12px;fill:red;fill-opacity:1;fill-rule:evenodd;stroke:none;stroke-width:0.625;stroke-linejoin:round" id="path2446"/>
  </g>
  <svg:switch style="font-size:18px;font-style:normal;font-weight:normal;text-align:center;text-anchor:middle;fill:black;fill-opacity:1;stroke:none;stroke-width:1px;stroke-linecap:butt;stroke-linejoin:miter;stroke-opacity:1;font-family:Sans"><svg:text x="146.4054" y="238.30923" style="font-size:18px;font-style:normal;font-weight:normal;text-align:center;text-anchor:middle;fill:black;fill-opacity:1;stroke:none;stroke-width:1px;stroke-linecap:butt;stroke-linejoin:miter;stroke-opacity:1;font-family:Sans" id="text2460-nl" xml:space="preserve" systemLanguage="nl"><svg:tspan x="146.4054" y="238.30923" id="tspan2462-nl">Elektronenbotsing</svg:tspan></svg:text><svg:text x="146.4054" y="238.30923" style="font-size:18px;font-style:normal;font-weight:normal;text-align:center;text-anchor:middle;fill:black;fill-opacity:1;stroke:none;stroke-width:1px;stroke-linecap:butt;stroke-linejoin:miter;stroke-opacity:1;font-family:Sans" id="text2460" xml:space="preserve"><svg:tspan x="146.4054" y="238.30923" id="tspan2462">Electron collision</svg:tspan></svg:text></svg:switch>
  <svg:switch style="font-size:18px;font-style:normal;font-weight:normal;text-align:center;text-anchor:middle;fill:black;fill-opacity:1;stroke:none;stroke-width:1px;stroke-linecap:butt;stroke-linejoin:miter;stroke-opacity:1;font-family:Sans"><svg:text x="160.33629" y="477.02658" style="font-size:18px;font-style:normal;font-weight:normal;text-align:center;text-anchor:middle;fill:black;fill-opacity:1;stroke:none;stroke-width:1px;stroke-linecap:butt;stroke-linejoin:miter;stroke-opacity:1;font-family:Sans" id="text2464-nl" xml:space="preserve" systemLanguage="nl"><svg:tspan x="160.33629" y="477.02658" id="tspan2466-nl">Auger-elektron emissie</svg:tspan></svg:text><svg:text x="160.33629" y="477.02658" style="font-size:18px;font-style:normal;font-weight:normal;text-align:center;text-anchor:middle;fill:black;fill-opacity:1;stroke:none;stroke-width:1px;stroke-linecap:butt;stroke-linejoin:miter;stroke-opacity:1;font-family:Sans" id="text2464" xml:space="preserve"><svg:tspan x="160.33629" y="477.02658" id="tspan2466">Auger electron emission</svg:tspan></svg:text></svg:switch>
  <svg:switch style="font-size:16px;font-style:normal;font-weight:normal;text-align:end;text-anchor:end;fill:black;fill-opacity:1;stroke:none;stroke-width:1px;stroke-linecap:butt;stroke-linejoin:miter;stroke-opacity:1;font-family:Sans"><svg:text x="272.39014" y="327.20111" style="font-size:16px;font-style:normal;font-weight:normal;text-align:end;text-anchor:end;fill:black;fill-opacity:1;stroke:none;stroke-width:1px;stroke-linecap:butt;stroke-linejoin:miter;stroke-opacity:1;font-family:Sans" id="text2468-nl" xml:space="preserve" systemLanguage="nl"><svg:tspan x="272.39014" y="327.20111" id="tspan2470-nl">E</svg:tspan></svg:text><svg:text x="272.39014" y="327.20111" style="font-size:16px;font-style:normal;font-weight:normal;text-align:end;text-anchor:end;fill:black;fill-opacity:1;stroke:none;stroke-width:1px;stroke-linecap:butt;stroke-linejoin:miter;stroke-opacity:1;font-family:Sans" id="text2468" xml:space="preserve"><svg:tspan x="272.39014" y="327.20111" id="tspan2470">E</svg:tspan></svg:text></svg:switch>
  <svg:switch style="font-size:10px;font-style:normal;font-weight:normal;text-align:start;text-anchor:start;fill:black;fill-opacity:1;stroke:none;stroke-width:1px;stroke-linecap:butt;stroke-linejoin:miter;stroke-opacity:1;font-family:Sans"><svg:text x="273.09586" y="331.41516" style="font-size:10px;font-style:normal;font-weight:normal;text-align:start;text-anchor:start;fill:black;fill-opacity:1;stroke:none;stroke-width:1px;stroke-linecap:butt;stroke-linejoin:miter;stroke-opacity:1;font-family:Sans" id="text2472-nl" xml:space="preserve" systemLanguage="nl"><svg:tspan x="273.09586" y="331.41516" id="tspan2474-nl">Auger</svg:tspan></svg:text><svg:text x="273.09586" y="331.41516" style="font-size:10px;font-style:normal;font-weight:normal;text-align:start;text-anchor:start;fill:black;fill-opacity:1;stroke:none;stroke-width:1px;stroke-linecap:butt;stroke-linejoin:miter;stroke-opacity:1;font-family:Sans" id="text2472" xml:space="preserve"><svg:tspan x="273.09586" y="331.41516" id="tspan2474">Auger</svg:tspan></svg:text></svg:switch>
  <svg:switch style="font-size:18px;font-style:normal;font-weight:normal;text-align:start;text-anchor:start;fill:black;fill-opacity:1;stroke:none;stroke-width:1px;stroke-linecap:butt;stroke-linejoin:miter;stroke-opacity:1;font-family:Sans"><svg:text x="46.219189" y="53.280685" style="font-size:18px;font-style:normal;font-weight:normal;text-align:start;text-anchor:start;fill:black;fill-opacity:1;stroke:none;stroke-width:1px;stroke-linecap:butt;stroke-linejoin:miter;stroke-opacity:1;font-family:Sans" id="text2476-nl" xml:space="preserve" systemLanguage="nl"><svg:tspan x="46.219189" y="53.280685" id="tspan2478-nl">(a)</svg:tspan></svg:text><svg:text x="46.219189" y="53.280685" style="font-size:18px;font-style:normal;font-weight:normal;text-align:start;text-anchor:start;fill:black;fill-opacity:1;stroke:none;stroke-width:1px;stroke-linecap:butt;stroke-linejoin:miter;stroke-opacity:1;font-family:Sans" id="text2476" xml:space="preserve"><svg:tspan x="46.219189" y="53.280685" id="tspan2478">(a)</svg:tspan></svg:text></svg:switch>
  <svg:switch style="font-size:18px;font-style:normal;font-weight:normal;text-align:start;text-anchor:start;fill:black;fill-opacity:1;stroke:none;stroke-width:1px;stroke-linecap:butt;stroke-linejoin:miter;stroke-opacity:1;font-family:Sans"><svg:text x="335.31995" y="53.289474" style="font-size:18px;font-style:normal;font-weight:normal;text-align:start;text-anchor:start;fill:black;fill-opacity:1;stroke:none;stroke-width:1px;stroke-linecap:butt;stroke-linejoin:miter;stroke-opacity:1;font-family:Sans" id="text2480-nl" xml:space="preserve" systemLanguage="nl"><svg:tspan x="335.31995" y="53.289474" id="tspan2482-nl">(b) </svg:tspan></svg:text><svg:text x="335.31995" y="53.289474" style="font-size:18px;font-style:normal;font-weight:normal;text-align:start;text-anchor:start;fill:black;fill-opacity:1;stroke:none;stroke-width:1px;stroke-linecap:butt;stroke-linejoin:miter;stroke-opacity:1;font-family:Sans" id="text2480" xml:space="preserve"><svg:tspan x="335.31995" y="53.289474" id="tspan2482">(b)</svg:tspan></svg:text></svg:switch>
  <svg:switch style="font-size:16px;font-style:normal;font-weight:normal;text-align:start;text-anchor:start;fill:black;fill-opacity:1;stroke:none;stroke-width:1px;stroke-linecap:butt;stroke-linejoin:miter;stroke-opacity:1;font-family:Sans"><svg:text x="390.37549" y="63.358116" style="font-size:16px;font-style:normal;font-weight:normal;text-align:start;text-anchor:start;fill:black;fill-opacity:1;stroke:none;stroke-width:1px;stroke-linecap:butt;stroke-linejoin:miter;stroke-opacity:1;font-family:Sans" id="text2484-nl" xml:space="preserve" systemLanguage="nl"><svg:tspan x="390.37549" y="63.358116" id="tspan2486-nl">Vacuüm</svg:tspan></svg:text><svg:text x="390.37549" y="63.358116" style="font-size:16px;font-style:normal;font-weight:normal;text-align:start;text-anchor:start;fill:black;fill-opacity:1;stroke:none;stroke-width:1px;stroke-linecap:butt;stroke-linejoin:miter;stroke-opacity:1;font-family:Sans" id="text2484" xml:space="preserve"><svg:tspan x="390.37549" y="63.358116" id="tspan2486">Vac</svg:tspan></svg:text></svg:switch>
  <svg:switch style="font-size:16px;font-style:normal;font-weight:normal;text-align:start;text-anchor:start;fill:black;fill-opacity:1;stroke:none;stroke-width:1px;stroke-linecap:butt;stroke-linejoin:miter;stroke-opacity:1;font-family:Sans"><svg:text x="533.72784" y="101.06206" style="font-size:16px;font-style:normal;font-weight:normal;text-align:start;text-anchor:start;fill:black;fill-opacity:1;stroke:none;stroke-width:1px;stroke-linecap:butt;stroke-linejoin:miter;stroke-opacity:1;font-family:Sans" id="text2488-nl" xml:space="preserve" systemLanguage="nl"><svg:tspan x="533.72784" y="101.06206" id="tspan2490-nl">Valentieband</svg:tspan></svg:text><svg:text x="533.72784" y="101.06206" style="font-size:16px;font-style:normal;font-weight:normal;text-align:start;text-anchor:start;fill:black;fill-opacity:1;stroke:none;stroke-width:1px;stroke-linecap:butt;stroke-linejoin:miter;stroke-opacity:1;font-family:Sans" id="text2488" xml:space="preserve"><svg:tspan x="533.72784" y="101.06206" id="tspan2490">Valence Level</svg:tspan></svg:text></svg:switch>
  <svg:switch style="font-size:16px;font-style:normal;font-weight:normal;text-align:start;text-anchor:start;fill:black;fill-opacity:1;stroke:none;stroke-width:1px;stroke-linecap:butt;stroke-linejoin:miter;stroke-opacity:1;font-family:Sans"><svg:text x="533.2536" y="283.62854" style="font-size:16px;font-style:normal;font-weight:normal;text-align:start;text-anchor:start;fill:black;fill-opacity:1;stroke:none;stroke-width:1px;stroke-linecap:butt;stroke-linejoin:miter;stroke-opacity:1;font-family:Sans" id="text2492-nl" xml:space="preserve" systemLanguage="nl"><svg:tspan x="533.2536" y="283.62854" id="tspan2494-nl">K</svg:tspan></svg:text><svg:text x="533.2536" y="283.62854" style="font-size:16px;font-style:normal;font-weight:normal;text-align:start;text-anchor:start;fill:black;fill-opacity:1;stroke:none;stroke-width:1px;stroke-linecap:butt;stroke-linejoin:miter;stroke-opacity:1;font-family:Sans" id="text2492" xml:space="preserve"><svg:tspan x="533.2536" y="283.62854" id="tspan2494">K</svg:tspan></svg:text></svg:switch>
  <svg:switch style="font-size:16px;font-style:normal;font-weight:normal;text-align:end;text-anchor:end;fill:black;fill-opacity:1;stroke:none;stroke-width:1px;stroke-linecap:butt;stroke-linejoin:miter;stroke-opacity:1;font-family:Sans"><svg:text x="541.18878" y="213.12303" style="font-size:16px;font-style:normal;font-weight:normal;text-align:end;text-anchor:end;fill:black;fill-opacity:1;stroke:none;stroke-width:1px;stroke-linecap:butt;stroke-linejoin:miter;stroke-opacity:1;font-family:Sans" id="text2496-nl" xml:space="preserve" systemLanguage="nl"><svg:tspan x="541.18878" y="213.12303" id="tspan2498-nl">L</svg:tspan></svg:text><svg:text x="541.18878" y="213.12303" style="font-size:16px;font-style:normal;font-weight:normal;text-align:end;text-anchor:end;fill:black;fill-opacity:1;stroke:none;stroke-width:1px;stroke-linecap:butt;stroke-linejoin:miter;stroke-opacity:1;font-family:Sans" id="text2496" xml:space="preserve"><svg:tspan x="541.18878" y="213.12303" id="tspan2498">L</svg:tspan></svg:text></svg:switch>
  <svg:switch style="font-size:16px;font-style:normal;font-weight:normal;text-align:end;text-anchor:end;fill:black;fill-opacity:1;stroke:none;stroke-width:1px;stroke-linecap:butt;stroke-linejoin:miter;stroke-opacity:1;font-family:Sans"><svg:text x="541.18878" y="185.74928" style="font-size:16px;font-style:normal;font-weight:normal;text-align:end;text-anchor:end;fill:black;fill-opacity:1;stroke:none;stroke-width:1px;stroke-linecap:butt;stroke-linejoin:miter;stroke-opacity:1;font-family:Sans" id="text2500-nl" xml:space="preserve" systemLanguage="nl"><svg:tspan x="541.18878" y="185.74928" id="tspan2502-nl">L</svg:tspan></svg:text><svg:text x="541.18878" y="185.74928" style="font-size:16px;font-style:normal;font-weight:normal;text-align:end;text-anchor:end;fill:black;fill-opacity:1;stroke:none;stroke-width:1px;stroke-linecap:butt;stroke-linejoin:miter;stroke-opacity:1;font-family:Sans" id="text2500" xml:space="preserve"><svg:tspan x="541.18878" y="185.74928" id="tspan2502">L</svg:tspan></svg:text></svg:switch>
  <svg:switch style="font-size:16px;font-style:normal;font-weight:normal;text-align:start;text-anchor:start;fill:black;fill-opacity:1;stroke:none;stroke-width:1px;stroke-linecap:butt;stroke-linejoin:miter;stroke-opacity:1;font-family:Sans"><svg:text x="532.28253" y="136.78159" style="font-size:16px;font-style:normal;font-weight:normal;text-align:start;text-anchor:start;fill:black;fill-opacity:1;stroke:none;stroke-width:1px;stroke-linecap:butt;stroke-linejoin:miter;stroke-opacity:1;font-family:Sans" id="text2504-nl" xml:space="preserve" systemLanguage="nl"><svg:tspan x="532.28253" y="136.78159" id="tspan2506-nl">M, etc</svg:tspan></svg:text><svg:text x="532.28253" y="136.78159" style="font-size:16px;font-style:normal;font-weight:normal;text-align:start;text-anchor:start;fill:black;fill-opacity:1;stroke:none;stroke-width:1px;stroke-linecap:butt;stroke-linejoin:miter;stroke-opacity:1;font-family:Sans" id="text2504" xml:space="preserve"><svg:tspan x="532.28253" y="136.78159" id="tspan2506">M, ...</svg:tspan></svg:text></svg:switch>
  <svg:switch style="font-size:10px;font-style:normal;font-weight:normal;text-align:start;text-anchor:start;fill:black;fill-opacity:1;stroke:none;stroke-width:1px;stroke-linecap:butt;stroke-linejoin:miter;stroke-opacity:1;font-family:Sans"><svg:text x="542.50677" y="189.56863" style="font-size:10px;font-style:normal;font-weight:normal;text-align:start;text-anchor:start;fill:black;fill-opacity:1;stroke:none;stroke-width:1px;stroke-linecap:butt;stroke-linejoin:miter;stroke-opacity:1;font-family:Sans" id="text2508-nl" xml:space="preserve" systemLanguage="nl"><svg:tspan x="542.50677" y="189.56863" id="tspan2510-nl">2,3</svg:tspan></svg:text><svg:text x="542.50677" y="189.56863" style="font-size:10px;font-style:normal;font-weight:normal;text-align:start;text-anchor:start;fill:black;fill-opacity:1;stroke:none;stroke-width:1px;stroke-linecap:butt;stroke-linejoin:miter;stroke-opacity:1;font-family:Sans" id="text2508" xml:space="preserve"><svg:tspan x="542.50677" y="189.56863" id="tspan2510">2,3</svg:tspan></svg:text></svg:switch>
  <svg:switch style="font-size:10px;font-style:normal;font-weight:normal;text-align:start;text-anchor:start;fill:black;fill-opacity:1;stroke:none;stroke-width:1px;stroke-linecap:butt;stroke-linejoin:miter;stroke-opacity:1;font-family:Sans"><svg:text x="542.14056" y="217.57516" style="font-size:10px;font-style:normal;font-weight:normal;text-align:start;text-anchor:start;fill:black;fill-opacity:1;stroke:none;stroke-width:1px;stroke-linecap:butt;stroke-linejoin:miter;stroke-opacity:1;font-family:Sans" id="text2512-nl" xml:space="preserve" systemLanguage="nl"><svg:tspan x="542.14056" y="217.57516" id="tspan2514-nl">1</svg:tspan></svg:text><svg:text x="542.14056" y="217.57516" style="font-size:10px;font-style:normal;font-weight:normal;text-align:start;text-anchor:start;fill:black;fill-opacity:1;stroke:none;stroke-width:1px;stroke-linecap:butt;stroke-linejoin:miter;stroke-opacity:1;font-family:Sans" id="text2512" xml:space="preserve"><svg:tspan x="542.14056" y="217.57516" id="tspan2514">1</svg:tspan></svg:text></svg:switch>
  <rect width="137.2688" height="24.476845" x="386.11792" y="83.774269" style="opacity:1;fill:#ccc;fill-opacity:1;fill-rule:nonzero;stroke:black;stroke-width:3;stroke-linecap:round;stroke-linejoin:round;stroke-miterlimit:4;stroke-dasharray:none;stroke-dashoffset:0;stroke-opacity:1" id="rect4466"/>
  <path d="M 388.60375,279.18956 L 524.90223,279.18956 M 388.60375,208.31294 L 524.90223,208.31294 M 388.60375,180.94918 L 524.90223,180.94918 M 388.60375,139.23066 L 524.90223,139.23066 M 388.60375,130.25894 L 524.90223,130.25894 M 388.60375,122.63297 L 524.90223,122.63297 M 510.58333,65.249796 L 510.58333,180.91331 M 438.36343,209.01051 L 438.36343,268.91109" style="fill:none;fill-rule:evenodd;stroke:black;stroke-width:3;stroke-linecap:round;stroke-linejoin:miter;stroke-miterlimit:4;stroke-opacity:1" id="path3413"/>
  <use transform="translate(44.91383,269.483)" id="use4382" x="0" y="0" width="744.09448" height="1052.3622" xlink:href="#g4378"/>
  <path d="M 505.79629,73.359586 L 510.61756,60.248524 L 515.43882,73.359586 C 512.59235,71.264986 508.69788,71.277056 505.79629,73.359586 z " style="font-size:12px;fill:black;fill-opacity:1;fill-rule:evenodd;stroke:none;stroke-width:0.625;stroke-linejoin:round" id="path4384"/>
  <path d="M 493.22833,279.0847 C 493.22833,281.2322 491.48744,282.9731 489.33994,282.9731 C 487.19243,282.9731 485.45154,281.2322 485.45154,279.0847 C 485.45154,276.9372 487.19243,275.19631 489.33994,275.19631 C 491.48744,275.19631 493.22833,276.9372 493.22833,279.0847 z " style="fill:black;fill-opacity:1;fill-rule:nonzero;stroke:none;stroke-width:2;stroke-linecap:round;stroke-linejoin:round;stroke-miterlimit:4;stroke-dasharray:none;stroke-dashoffset:0;stroke-opacity:1" id="path4398"/>
  <path d="M 442.27731,279.28572 C 442.27731,281.43322 440.53642,283.17412 438.38892,283.17412 C 436.24141,283.17412 434.50052,281.43322 434.50052,279.28572 C 434.50052,277.13822 436.24141,275.39733 438.38892,275.39733 C 440.53642,275.39733 442.27731,277.13822 442.27731,279.28572 z " style="fill:white;fill-opacity:1;fill-rule:nonzero;stroke:black;stroke-width:2;stroke-linecap:round;stroke-linejoin:round;stroke-miterlimit:4;stroke-dasharray:none;stroke-dashoffset:0;stroke-opacity:1" id="path4410"/>
  <path d="M 494.36365,208.1431 C 494.36365,210.2906 492.62276,212.0315 490.47526,212.0315 C 488.32775,212.0315 486.58686,210.2906 486.58686,208.1431 C 486.58686,205.9956 488.32775,204.25471 490.47526,204.25471 C 492.62276,204.25471 494.36365,205.9956 494.36365,208.1431 z " style="fill:black;fill-opacity:1;fill-rule:nonzero;stroke:none;stroke-width:2;stroke-linecap:round;stroke-linejoin:round;stroke-miterlimit:4;stroke-dasharray:none;stroke-dashoffset:0;stroke-opacity:1" id="path4450"/>
  <path d="M 442.26766,208.30848 C 442.26766,210.45598 440.52677,212.19688 438.37927,212.19688 C 436.23176,212.19688 434.49087,210.45598 434.49087,208.30848 C 434.49087,206.16098 436.23176,204.42009 438.37927,204.42009 C 440.52677,204.42009 442.26766,206.16098 442.26766,208.30848 z " style="fill:black;fill-opacity:1;fill-rule:nonzero;stroke:none;stroke-width:2;stroke-linecap:round;stroke-linejoin:round;stroke-miterlimit:4;stroke-dasharray:none;stroke-dashoffset:0;stroke-opacity:1" id="path4452"/>
  <path d="M 514.41354,181.02011 C 514.41354,183.16761 512.67265,184.90851 510.52515,184.90851 C 508.37764,184.90851 506.63675,183.16761 506.63675,181.02011 C 506.63675,178.87261 508.37764,177.13172 510.52515,177.13172 C 512.67265,177.13172 514.41354,178.87261 514.41354,181.02011 z " style="fill:black;fill-opacity:1;fill-rule:nonzero;stroke:none;stroke-width:2;stroke-linecap:round;stroke-linejoin:round;stroke-miterlimit:4;stroke-dasharray:none;stroke-dashoffset:0;stroke-opacity:1" id="path4454"/>
  <path d="M 493.86517,181.02011 C 493.86517,183.16761 492.12428,184.90851 489.97678,184.90851 C 487.82927,184.90851 486.08838,183.16761 486.08838,181.02011 C 486.08838,178.87261 487.82927,177.13172 489.97678,177.13172 C 492.12428,177.13172 493.86517,178.87261 493.86517,181.02011 z " style="fill:black;fill-opacity:1;fill-rule:nonzero;stroke:none;stroke-width:2;stroke-linecap:round;stroke-linejoin:round;stroke-miterlimit:4;stroke-dasharray:none;stroke-dashoffset:0;stroke-opacity:1" id="path4456"/>
  <path d="M 473.31678,181.02011 C 473.31678,183.16761 471.57589,184.90851 469.42839,184.90851 C 467.28088,184.90851 465.53999,183.16761 465.53999,181.02011 C 465.53999,178.87261 467.28088,177.13172 469.42839,177.13172 C 471.57589,177.13172 473.31678,178.87261 473.31678,181.02011 z " style="fill:black;fill-opacity:1;fill-rule:nonzero;stroke:none;stroke-width:2;stroke-linecap:round;stroke-linejoin:round;stroke-miterlimit:4;stroke-dasharray:none;stroke-dashoffset:0;stroke-opacity:1" id="path4458"/>
  <path d="M 452.7684,181.02011 C 452.7684,183.16761 451.02751,184.90851 448.88001,184.90851 C 446.7325,184.90851 444.99161,183.16761 444.99161,181.02011 C 444.99161,178.87261 446.7325,177.13172 448.88001,177.13172 C 451.02751,177.13172 452.7684,178.87261 452.7684,181.02011 z " style="fill:black;fill-opacity:1;fill-rule:nonzero;stroke:none;stroke-width:2;stroke-linecap:round;stroke-linejoin:round;stroke-miterlimit:4;stroke-dasharray:none;stroke-dashoffset:0;stroke-opacity:1" id="path4460"/>
  <path d="M 432.22001,181.02011 C 432.22001,183.16761 430.47912,184.90851 428.33162,184.90851 C 426.18411,184.90851 424.44322,183.16761 424.44322,181.02011 C 424.44322,178.87261 426.18411,177.13172 428.33162,177.13172 C 430.47912,177.13172 432.22001,178.87261 432.22001,181.02011 z " style="fill:black;fill-opacity:1;fill-rule:nonzero;stroke:none;stroke-width:2;stroke-linecap:round;stroke-linejoin:round;stroke-miterlimit:4;stroke-dasharray:none;stroke-dashoffset:0;stroke-opacity:1" id="path4462"/>
  <path d="M 411.67161,181.02011 C 411.67161,183.16761 409.93072,184.90851 407.78322,184.90851 C 405.63571,184.90851 403.89482,183.16761 403.89482,181.02011 C 403.89482,178.87261 405.63571,177.13172 407.78322,177.13172 C 409.93072,177.13172 411.67161,178.87261 411.67161,181.02011 z " style="fill:black;fill-opacity:1;fill-rule:nonzero;stroke:none;stroke-width:2;stroke-linecap:round;stroke-linejoin:round;stroke-miterlimit:4;stroke-dasharray:none;stroke-dashoffset:0;stroke-opacity:1" id="path4464"/>
  <path d="M 381.48714,69.882006 L 532.97896,69.882006" style="fill:none;fill-rule:evenodd;stroke:black;stroke-width:3;stroke-linecap:round;stroke-linejoin:miter;stroke-miterlimit:4;stroke-dasharray:12, 12;stroke-dashoffset:0;stroke-opacity:1" id="path4479"/>
  <g transform="matrix(0.720064,-0.693907,0.693907,0.720064,39.54286,12.58451)" id="g6275">
    <path d="M 90.625353,349.98192 L 100.99553,458.86885" style="fill:none;fill-rule:evenodd;stroke:red;stroke-width:2;stroke-linecap:butt;stroke-linejoin:round;stroke-miterlimit:4;stroke-dasharray:none;stroke-opacity:1" id="path6277"/>
    <path d="M 105.1694,450.65261 L 101.90076,464.23424 L 95.591904,451.77058 C 98.662024,453.52104 102.52882,453.05752 105.1694,450.65261 z " style="font-size:12px;fill:red;fill-opacity:1;fill-rule:evenodd;stroke:none;stroke-width:0.625;stroke-linejoin:round" id="path6279"/>
  </g>
</svg>
